<?xml version="1.0" encoding="utf-8"?>
<!-- Generator: Adobe Illustrator 23.0.2, SVG Export Plug-In . SVG Version: 6.00 Build 0)  -->
<svg version="1.1" id="Arqam_xA0_Image_1_" xmlns="http://www.w3.org/2000/svg" xmlns:xlink="http://www.w3.org/1999/xlink" x="0px"
	 y="0px" viewBox="0 0 188.98 188.98" style="enable-background:new 0 0 188.98 188.98;" xml:space="preserve">
<style type="text/css">
	.st0{fill:#FFFFFF;}
</style>
<g>
	<path class="st0" d="M57.92,120.19c-0.07-0.41-0.16-0.82-0.2-1.23c-0.3-3.15-0.59-6.3-0.87-9.45c-0.27-2.98-0.51-5.96-0.77-8.94
		c-0.08-0.94-0.45-1.22-1.38-1.04c-2.57,0.49-5.12,1.03-7.69,1.48c-2.09,0.36-4.2,0.63-6.31,0.91c-1.28,0.17-2.56,0.32-3.85,0.44
		c-0.4,0.04-0.82,0.01-1.21-0.1c-0.51-0.14-0.63-0.69-0.22-1.03c0.28-0.23,0.64-0.4,1-0.49c3.56-0.94,7.16-1.75,10.69-2.81
		c4.82-1.45,9.57-3.15,14.17-5.24c1.22-0.55,2.44-1.1,3.64-1.69c0.41-0.2,0.75-0.55,1.13-0.82c0.13-0.09,0.29-0.17,0.45-0.22
		c0.36-0.11,0.75-0.15,1.07-0.32c4.72-2.45,9.22-5.26,13.32-8.66c2.02-1.67,3.99-3.43,5.82-5.31c1.71-1.75,3.25-3.68,4.79-5.59
		c1.7-2.11,3.31-4.29,4.96-6.43c0.4-0.52,0.65-0.48,1.1,0.1c2.07,2.7,4.12,5.41,6.23,8.08c2.09,2.63,4.43,5.03,6.97,7.23
		c2.61,2.26,5.32,4.39,8.21,6.27c3.84,2.51,7.86,4.7,12.03,6.62c4.38,2.02,8.86,3.8,13.47,5.23c3.67,1.14,7.39,2.09,11.1,3.1
		c1.09,0.3,2.21,0.5,3.32,0.75c0.21,0.05,0.43,0.12,0.63,0.2c0.33,0.14,0.48,0.4,0.43,0.75c-0.05,0.36-0.32,0.52-0.64,0.51
		c-0.71-0.01-1.42-0.01-2.12-0.1c-3.92-0.52-7.83-1.06-11.74-1.62c-1.24-0.18-2.47-0.47-3.71-0.7c-1.05-0.2-1.37,0-1.47,1.06
		c-0.23,2.44-0.41,4.89-0.63,7.34c-0.26,2.92-0.53,5.83-0.8,8.75c-0.07,0.8-0.16,1.6-0.25,2.39c-0.02,0.19-0.1,0.37-0.15,0.56
		c-0.05,0-0.11,0-0.16,0c-0.04-0.36-0.11-0.72-0.12-1.08c-0.02-1.02-0.01-2.05-0.01-3.07c0-5.12,0.01-10.24,0.01-15.35
		c0-1.14-0.14-1.36-1.25-1.66c-2.25-0.61-4.52-1.13-6.76-1.78c-5.29-1.55-10.49-3.37-15.51-5.67c-3.31-1.52-6.6-3.07-9.69-4.99
		c-2.18-1.35-4.3-2.8-6.45-4.2c-0.16-0.1-0.31-0.21-0.47-0.31c-0.92-0.57-1.28-0.56-2.15,0.06c-5.34,3.83-11.05,7.01-17.06,9.68
		c-5.47,2.43-11.11,4.35-16.85,5.99c-0.83,0.24-1.68,0.42-2.51,0.66c-1.02,0.3-1.18,0.52-1.18,1.58c0,5.97,0.01,11.94,0.01,17.9
		c0,0.54,0,1.07-0.02,1.61c-0.01,0.22-0.07,0.44-0.11,0.67C58.05,120.19,57.99,120.19,57.92,120.19z"/>
	<path class="st0" d="M115.79,105.14c0,2.91,0,5.82,0,8.72c-0.74,0.13-0.76,0.12-0.76-0.51c0-3.23,0.01-6.46-0.01-9.68
		c0-0.41,0.1-0.52,0.54-0.58c1.01-0.14,1.49,0.28,1.9,1.17c1.07,2.29,2.26,4.53,3.41,6.78c0.07,0.13,0.15,0.26,0.27,0.47
		c0.12-0.23,0.2-0.37,0.28-0.52c1.23-2.46,2.47-4.92,3.67-7.39c0.19-0.39,0.41-0.53,0.83-0.49c0.37,0.04,0.75,0.01,1.16,0.01
		c0,3.61,0,7.17,0,10.78c-0.55,0-1.09,0-1.69,0c0-2.9,0-5.82,0-8.74c-0.04-0.01-0.09-0.03-0.13-0.04c-0.09,0.15-0.19,0.29-0.26,0.44
		c-1.32,2.63-2.63,5.26-3.95,7.89c-0.1,0.19-0.28,0.33-0.43,0.5c-0.14-0.17-0.32-0.32-0.42-0.51c-1.36-2.64-2.7-5.29-4.06-7.94
		c-0.07-0.13-0.15-0.25-0.22-0.37C115.88,105.11,115.83,105.13,115.79,105.14z"/>
	<path class="st0" d="M97.1,114.07c0.92,1.91,2.43,2.84,4.44,3.08c-0.02,0.06-0.04,0.12-0.06,0.18c-0.42-0.03-0.84-0.03-1.26-0.11
		c-2.27-0.41-4.27-1.36-5.94-2.97c-0.17-0.17-0.39-0.32-0.62-0.39c-2.39-0.82-3.97-3.26-3.82-5.9c0.13-2.33,2.06-4.45,4.5-4.95
		c2.73-0.56,5.37,0.57,6.6,2.82c1.63,2.98,0.07,6.93-3.15,8.01C97.58,113.91,97.38,113.97,97.1,114.07z M91.76,108.45
		c0.13,0.79,0.19,1.59,0.41,2.35c0.35,1.25,1.05,2.25,2.34,2.7c1.67,0.58,3.61-0.25,4.44-2c0.97-2.06,0.95-4.18-0.05-6.23
		c-0.63-1.29-1.73-1.94-3.2-1.94c-1.46,0.01-2.52,0.67-3.19,1.95C91.99,106.27,91.82,107.33,91.76,108.45z"/>
	<path class="st0" d="M81.56,108.88c0,1.67,0,3.33,0,5.02c-0.59,0-1.14,0-1.71,0c0-3.59,0-7.15,0-10.71
		c0.03-0.02,0.06-0.06,0.08-0.05c1.6,0.02,3.21-0.02,4.8,0.09c1.09,0.08,2.03,0.57,2.51,1.66c0.52,1.2,0.08,2.49-1.11,3.21
		c-0.4,0.24-0.84,0.41-1.3,0.63c1.29,1.72,2.56,3.42,3.89,5.2c-0.69,0-1.28,0.02-1.87-0.02c-0.15-0.01-0.31-0.18-0.42-0.32
		c-0.99-1.32-2.03-2.61-2.93-3.99C83.01,108.83,82.43,108.7,81.56,108.88z M81.59,108.29c1.02,0.05,2.01,0.12,2.9-0.45
		c0.83-0.53,1.16-1.29,1.01-2.26c-0.15-0.94-0.7-1.56-1.61-1.75c-0.6-0.13-1.25-0.07-1.87-0.12c-0.35-0.03-0.47,0.09-0.46,0.45
		c0.02,1.19,0.01,2.39,0.01,3.58C81.57,107.92,81.58,108.09,81.59,108.29z"/>
	<path class="st0" d="M61.71,88.93c-0.15-0.17-0.32-0.33-0.43-0.52c-1.57-2.68-2.49-5.54-2.15-8.69c0.16-1.46,0.6-2.86,1.48-4.08
		c1.41-1.97,2.16-4.18,2.27-6.6c0.05-1-0.03-2.01-0.05-3.01c-0.01-0.37,0-0.74,0.1-1.16c0.11,0.13,0.26,0.23,0.34,0.38
		c1.08,2.09,1.4,4.29,0.91,6.6c-0.33,1.55-0.92,3-1.76,4.35c-1,1.6-1.44,3.38-1.6,5.23c-0.18,2.14,0.17,4.23,0.76,6.29
		c0.11,0.38,0.18,0.77,0.27,1.15C61.8,88.89,61.75,88.91,61.71,88.93z"/>
	<path class="st0" d="M78.2,113.92c-0.59,0-1.1,0.02-1.61-0.02c-0.12-0.01-0.25-0.2-0.32-0.34c-0.46-0.97-0.91-1.93-1.34-2.91
		c-0.12-0.28-0.28-0.38-0.57-0.37c-1.29,0.01-2.58,0.01-3.87,0c-0.31,0-0.49,0.11-0.61,0.39c-0.41,0.9-0.84,1.79-1.26,2.69
		c-0.3,0.64-0.3,0.64-1.06,0.52c0.04-0.12,0.08-0.23,0.13-0.34c1.6-3.41,3.21-6.82,4.83-10.23c0.08-0.17,0.27-0.36,0.43-0.39
		c0.1-0.02,0.31,0.21,0.39,0.37c1.59,3.42,3.16,6.84,4.73,10.27C78.09,113.64,78.12,113.73,78.2,113.92z M70.38,109.61
		c1.38,0,2.67,0,4.05,0c-0.66-1.45-1.3-2.83-2-4.35C71.72,106.77,71.06,108.16,70.38,109.61z"/>
	<path class="st0" d="M113.39,113.89c-0.11,0.02-0.16,0.03-0.21,0.03c-1.52,0.05-1.52,0.05-2.15-1.33c-0.3-0.64-0.6-1.28-0.88-1.93
		c-0.12-0.29-0.3-0.39-0.61-0.39c-1.28,0.01-2.55,0.01-3.83,0c-0.33,0-0.5,0.12-0.64,0.42c-0.4,0.89-0.86,1.75-1.23,2.65
		c-0.22,0.53-0.53,0.68-1.09,0.53c0.04-0.12,0.08-0.25,0.13-0.37c1.6-3.4,3.2-6.8,4.82-10.19c0.08-0.17,0.28-0.29,0.42-0.43
		c0.14,0.14,0.34,0.26,0.42,0.43c1.56,3.36,3.11,6.74,4.66,10.11C113.27,113.57,113.32,113.71,113.39,113.89z M105.59,109.61
		c1.39,0,2.68,0,4.06,0c-0.67-1.45-1.31-2.85-2-4.36C106.93,106.77,106.28,108.15,105.59,109.61z"/>
	<path class="st0" d="M67.35,74.81c0.08,0.23,0.18,0.45,0.24,0.68c0.49,1.99,0.18,3.88-0.8,5.66c-1.23,2.21-1.61,4.55-1.12,7.02
		c0.02,0.12,0.03,0.25,0.04,0.37c0,0.04-0.02,0.09-0.06,0.2c-0.1-0.12-0.2-0.19-0.25-0.29c-1.25-2.53-1.43-5.04,0.22-7.47
		c1.05-1.55,1.4-3.28,1.44-5.1c0.01-0.28,0.03-0.56,0.05-0.85c0.01-0.07,0.06-0.14,0.09-0.2C67.25,74.83,67.3,74.82,67.35,74.81z"/>
</g>
</svg>
