<?xml version="1.0" standalone="no"?>
<!DOCTYPE svg PUBLIC "-//W3C//DTD SVG 20010904//EN"
 "http://www.w3.org/TR/2001/REC-SVG-20010904/DTD/svg10.dtd">
<svg version="1.0" xmlns="http://www.w3.org/2000/svg"
 width="700.000000pt" height="700.000000pt" viewBox="0 0 700.000000 700.000000"
 preserveAspectRatio="xMidYMid meet">
<metadata>
Created by potrace 1.11, written by Peter Selinger 2001-2013
</metadata>
<g transform="translate(0.000000,700.000000) scale(0.100000,-0.100000)"
fill="#000000" stroke="none">
<path d="M3547 4608 c-24 -29 -88 -111 -142 -183 -109 -143 -284 -324 -415
-429 -124 -99 -319 -227 -450 -294 -63 -33 -131 -68 -150 -79 -55 -31 -268
-120 -402 -169 -136 -49 -298 -99 -458 -139 -132 -34 -140 -36 -170 -42 -34
-8 -60 -32 -53 -50 5 -13 21 -15 100 -10 51 3 97 8 101 10 4 3 36 8 70 11 35
4 103 14 150 22 48 8 100 17 116 20 16 3 32 6 35 8 3 2 26 7 51 10 25 3 60 10
78 15 34 10 61 6 63 -10 1 -5 2 -12 3 -16 2 -7 9 -79 22 -228 8 -94 15 -170
19 -210 2 -22 7 -74 11 -115 4 -41 8 -82 10 -90 1 -8 3 -32 3 -52 1 -21 5 -38
9 -38 5 0 9 176 9 391 0 315 3 393 13 399 8 5 73 25 144 45 422 118 798 285
1131 503 72 47 138 85 148 84 11 0 56 -25 100 -55 196 -130 221 -145 420 -244
252 -126 474 -209 795 -298 106 -29 196 -56 200 -60 4 -3 7 -172 8 -373 1
-202 2 -373 3 -381 2 -26 13 -3 16 36 5 67 16 177 20 203 2 14 7 61 10 105 4
44 9 96 11 115 1 19 6 73 9 120 12 163 12 162 78 149 36 -7 142 -24 287 -45
144 -21 272 -37 312 -39 48 -3 73 11 60 32 -4 6 -81 30 -172 53 -170 43 -420
114 -455 130 -11 4 -29 11 -40 13 -68 17 -338 129 -483 201 -272 134 -454 254
-667 437 -138 119 -236 230 -437 497 -39 50 -72 92 -73 92 -2 0 -23 -24 -48
-52z"/>
<path d="M2326 4498 c2 -117 -14 -182 -71 -280 -87 -150 -90 -269 -10 -445 28
-61 53 -86 42 -40 -54 213 -45 322 39 471 59 104 73 235 36 334 -27 73 -37 62
-36 -40z"/>
<path d="M2490 4225 c-1 -5 -4 -29 -6 -53 -5 -64 -23 -123 -48 -162 -49 -76
-60 -154 -31 -239 20 -60 35 -68 25 -12 -14 79 -1 145 52 256 21 46 28 74 27
120 0 52 -15 118 -19 90z"/>
<path d="M2692 3177 c-10 -11 -100 -197 -154 -317 -11 -25 -25 -53 -30 -62 -6
-14 -5 -18 7 -18 8 0 28 27 46 63 17 34 36 65 40 68 5 3 44 5 87 4 l77 0 34
-68 c32 -62 37 -67 67 -67 l33 0 -36 78 c-19 42 -53 115 -75 162 -22 47 -49
104 -59 128 -20 46 -22 48 -37 29z m58 -228 c0 -5 -31 -9 -70 -9 -38 0 -70 2
-70 4 0 2 16 39 37 81 l36 77 34 -72 c18 -40 33 -77 33 -81z"/>
<path d="M3490 3184 c-90 -28 -151 -98 -158 -179 -8 -96 37 -174 128 -220 25
-13 52 -31 60 -40 20 -25 108 -67 168 -81 61 -14 70 -3 11 16 -36 12 -99 68
-99 89 0 5 11 12 25 15 13 3 41 20 60 38 125 109 91 300 -62 352 -45 15 -102
20 -133 10z m126 -33 c68 -41 95 -185 52 -271 -43 -84 -127 -114 -194 -68 -42
29 -62 72 -70 151 -12 118 48 207 141 207 22 0 54 -9 71 -19z"/>
<path d="M3989 3169 c-7 -13 -43 -87 -79 -164 -37 -77 -75 -157 -85 -178 -10
-21 -15 -40 -12 -43 11 -12 29 10 58 70 l30 62 84 -1 c46 0 86 -3 89 -5 2 -3
17 -32 33 -65 25 -53 32 -60 61 -63 30 -3 31 -2 23 20 -20 52 -171 372 -180
381 -6 6 -14 0 -22 -14z m21 -116 c13 -27 29 -63 37 -80 l13 -33 -74 0 -74 0
36 80 c20 44 38 80 38 80 1 0 12 -21 24 -47z"/>
<path d="M2959 3173 c-1 -11 -1 -332 0 -365 1 -24 5 -28 31 -28 l30 0 0 95 c0
95 0 95 25 95 20 0 39 -19 95 -95 66 -89 72 -95 105 -95 43 0 42 1 -39 109
-31 41 -56 78 -56 82 0 3 13 12 28 18 33 14 62 58 62 94 0 35 -35 75 -78 87
-43 11 -202 14 -203 3z m189 -49 c49 -56 0 -134 -84 -134 l-44 0 0 78 c0 43 3
81 6 85 4 3 27 4 53 2 35 -3 52 -10 69 -31z"/>
<path d="M4260 2980 c0 -170 2 -200 15 -200 12 0 15 27 17 163 l3 162 83 -163
c62 -122 86 -161 95 -154 7 6 45 78 86 161 41 82 77 148 81 146 3 -2 5 -74 5
-160 l0 -156 30 3 30 3 3 198 2 197 -34 0 -35 0 -73 -150 c-40 -82 -76 -150
-80 -150 -5 0 -40 64 -79 143 -39 78 -77 145 -83 149 -6 4 -23 8 -38 8 l-28 0
0 -200z"/>
</g>
</svg>
